<?xml version="1.0" encoding="UTF-8"?><svg id="Layer_2" xmlns="http://www.w3.org/2000/svg" viewBox="0 0 177.6 92.7"><defs><style>.cls-1{stroke-width:0px;}</style></defs><g id="Layer_1-2"><path class="cls-1" d="m12.1,35.1c.5,0,1,0,1.5-.3.5-.2.9-.4,1.4-.7.4-.3.9-.7,1.3-1.1.4-.4.8-.8,1.2-1.3h.2c0,.1-1.6,4.1-1.6,4.1-.2,0-.4.2-.7.4-.3.1-.6.3-1,.4-.4.1-.9.2-1.4.3-.5,0-1.2.1-1.9.1-2.2,0-3.9-.6-5.1-1.8-1.2-1.2-1.8-3-1.8-5.5V13.4H0c0,.1,0-2,0-2,.5,0,1.1,0,1.8,0,.7,0,1.5,0,2.3,0,0-1.2,0-2.2,0-3.1,0-.9,0-1.7-.1-2.3,0-.7-.1-1.2-.2-1.7,0-.5-.2-.8-.2-1.1h0c0,0,5.6,0,5.6,0h0c0,.4-.2.8-.3,1.2,0,.5-.2,1-.2,1.7,0,.7-.1,1.4-.1,2.3,0,.9,0,1.9,0,3.1,1,0,2,0,3,0,1,0,1.9,0,2.7,0,.8,0,1.5,0,2.1-.1.6,0,.9,0,1.1-.1l-.4,2.5c-.8,0-1.7,0-2.6,0-.8,0-1.7,0-2.7,0-1,0-2.1,0-3.1,0v16.8c0,1,.1,1.8.3,2.5.2.6.5,1.1.9,1.5.3.4.7.6,1.2.7.4.1.9.2,1.4.2Z"/><path class="cls-1" d="m22.5,21c0-1.4,0-2.6,0-3.6,0-1,0-1.9-.1-2.7,0-.7-.1-1.4-.2-1.9,0-.5-.2-.9-.3-1.3h0c0,0,5.6,0,5.6,0h0c-.1.5-.2.9-.3,1.5,0,.5-.2,1.2-.2,2.1.6-.5,1.2-1,1.9-1.5.7-.5,1.3-.9,2-1.3.7-.4,1.4-.7,2.1-.9.7-.2,1.4-.3,2.1-.3s.8,0,1.1,0c.3,0,.6,0,.9.2.3,0,.5.2.7.2.2,0,.4.2.6.3l-1.2,4.7h-.4c-.2-.8-.6-1.4-1.1-1.8-.5-.4-1.3-.6-2.2-.6s-1,0-1.6.3c-.6.2-1.1.4-1.7.7-.6.3-1.1.7-1.7,1.1-.6.4-1.1.9-1.7,1.3,0,.5,0,1,0,1.5v8.1c0,1.4,0,2.6,0,3.6,0,1,0,1.9.1,2.7,0,.7.1,1.4.2,1.9,0,.5.2.9.3,1.3h0c0,0-5.6,0-5.6,0h0c0-.4.2-.9.3-1.4,0-.5.2-1.1.2-1.9,0-.7.1-1.6.1-2.7,0-1,0-2.2,0-3.6v-5.9Z"/><path class="cls-1" d="m39.1,29.3c0-1.3.3-2.4.8-3.3.5-.9,1.2-1.7,2.1-2.4.9-.7,1.9-1.2,3-1.6s2.3-.7,3.5-1c1.2-.2,2.4-.4,3.6-.5,1.2,0,2.2-.1,3.2-.2v-1.2c0-1.1-.1-2-.4-2.8-.3-.8-.7-1.4-1.2-1.9-.5-.5-1.1-.9-1.8-1.1-.7-.3-1.5-.4-2.3-.4s-1.2,0-1.7.1c-.6,0-1.2.3-1.8.5-.6.2-1.3.5-1.9.9-.7.4-1.4.9-2.2,1.5h-.2c0-.1,1.7-3.6,1.7-3.6.5-.2,1.1-.4,1.6-.6.5-.2,1-.3,1.6-.4s1.1-.2,1.6-.2c.6,0,1.2,0,1.8,0,1.7,0,3.2.2,4.4.6,1.2.4,2.2,1,3,1.7.8.7,1.3,1.6,1.7,2.5.4,1,.5,2,.5,3.1v8c0,1.4,0,2.6,0,3.6,0,1,0,1.9.1,2.7,0,.7.1,1.4.2,1.9,0,.5.2.9.3,1.3h0c0,0-5.4,0-5.4,0h0c0-.4.1-.7.2-1,0-.3,0-.7.1-1.2-.3.3-.7.6-1.2.9-.5.3-1,.6-1.6.8-.6.3-1.3.5-2,.6-.7.2-1.5.2-2.4.2-2.8,0-5-.7-6.6-2-1.5-1.3-2.3-3.2-2.3-5.7Zm16.2-7.1c-1.5,0-2.9.1-4.3.3-1.4.2-2.6.5-3.6,1s-1.9,1.2-2.5,2.1c-.6.9-.9,2.1-.9,3.6s.5,3.4,1.4,4.4c1,1,2.3,1.5,4,1.5s1.5-.1,2.1-.3c.6-.2,1.2-.5,1.7-.8.5-.3.9-.7,1.3-1.1.3-.4.6-.8.8-1.2,0-.6,0-1.3,0-2.1v-7.3Z"/><path class="cls-1" d="m69.2,11.5h0c0,.2,0,.3,0,.5,0,.2,0,.3,0,.4,0,.5,0,1.1.2,1.7s.4,1.4.8,2.3l5.8,13.9,5.9-13.7c.2-.6.5-1.3.8-2,.3-.7.4-1.4.4-2.2s0-.4,0-.5c0-.1,0-.2,0-.3h0c0,0,4.4,0,4.4,0h0c-.3.4-.7,1-1.1,1.7-.4.8-.9,1.8-1.4,3l-9,20.6h-1.4l-8.3-19.4c-.3-.7-.6-1.4-.9-2.1-.3-.7-.7-1.2-1-1.8-.3-.5-.6-1-.8-1.3-.2-.3-.4-.6-.5-.7h0c0,0,6.4,0,6.4,0Z"/><path class="cls-1" d="m101.7,36.9c-1.8,0-3.5-.3-5.1-.9-1.6-.6-3-1.4-4.1-2.5s-2.1-2.5-2.8-4.1c-.7-1.6-1-3.5-1-5.6s.3-3.5.9-5.1c.6-1.6,1.5-2.9,2.6-4.1,1.1-1.2,2.4-2.1,3.8-2.7,1.5-.7,3-1,4.7-1s3.2.3,4.7.9c1.4.6,2.7,1.4,3.7,2.5s1.9,2.5,2.5,4.1c.6,1.6.9,3.5,1,5.5-1.8,0-3.7,0-5.5,0-1.8,0-3.8,0-5.7,0s-2.8,0-4.1,0c-1.3,0-2.6,0-3.6,0,0,1.7.4,3.2.8,4.6.4,1.4,1,2.5,1.8,3.5.8,1,1.7,1.7,2.8,2.2,1.1.5,2.3.8,3.7.8s1.8-.1,2.7-.3,1.6-.5,2.3-.9,1.3-.9,1.8-1.4c.5-.5,1-1.1,1.4-1.7h.3c0,.1-1.8,4.5-1.8,4.5-.9.5-1.9.8-3.1,1.2s-2.7.5-4.4.5Zm-3.2-14.9c1.6,0,3.3,0,4.9,0,1.6,0,3.1,0,4.5,0-.1-1.4-.4-2.7-.8-3.8-.4-1.1-.9-2.1-1.6-2.9s-1.4-1.4-2.2-1.8c-.9-.4-1.8-.6-2.9-.6s-1.8.2-2.6.6c-.8.4-1.5,1-2.1,1.8s-1.1,1.7-1.4,2.9c-.4,1.1-.6,2.4-.6,3.9.7,0,1.5,0,2.3,0h2.5Z"/><path class="cls-1" d="m118,9.5c0-1.4,0-2.6,0-3.6,0-1,0-1.9-.1-2.7,0-.7-.1-1.4-.2-1.9,0-.5-.2-.9-.3-1.3h0c0,0,5.6,0,5.6,0h0c0,.4-.2.9-.3,1.4,0,.5-.2,1.1-.2,1.9,0,.7-.1,1.6-.1,2.7,0,1,0,2.2,0,3.6v17.4c0,1.4,0,2.6,0,3.6,0,1,0,1.9.1,2.7,0,.7.1,1.4.2,1.9,0,.5.2.9.3,1.3h0c0,0-5.6,0-5.6,0h0c0-.4.2-.9.3-1.4,0-.5.2-1.1.2-1.9,0-.7.1-1.6.1-2.7,0-1,0-2.2,0-3.6V9.5Z"/><path class="cls-1" d="m1.7,57.6c1.1-2.2,2.6-3.8,4.5-5,1.9-1.2,4.1-1.8,6.4-1.8s3.9.4,5.4,1.2c1.5.8,2.8,1.9,3.7,3.1v-4h7v27.7h-7v-4c-.9,1.3-2.1,2.4-3.7,3.2-1.6.9-3.4,1.3-5.5,1.3s-4.5-.6-6.4-1.8c-1.9-1.2-3.4-2.9-4.5-5.1-1.1-2.2-1.7-4.7-1.7-7.5s.6-5.3,1.7-7.4Zm19.1,3.2c-.7-1.2-1.6-2.1-2.7-2.8-1.1-.6-2.4-1-3.6-1s-2.5.3-3.6,1c-1.1.6-2,1.6-2.7,2.8-.7,1.2-1,2.7-1,4.3s.3,3.1,1,4.4c.7,1.2,1.6,2.2,2.7,2.9,1.1.7,2.3,1,3.6,1s2.5-.3,3.6-1c1.1-.7,2-1.6,2.7-2.8.7-1.2,1-2.7,1-4.4s-.3-3.2-1-4.4Z"/><path class="cls-1" d="m49.5,52.1c1.6.8,2.8,1.9,3.7,3.2v-4h7v27.9c0,2.6-.5,4.9-1.5,6.9-1,2-2.6,3.6-4.7,4.8-2.1,1.2-4.6,1.8-7.5,1.8s-7.2-.9-9.7-2.8c-2.5-1.8-3.9-4.3-4.3-7.5h6.9c.4,1.3,1.2,2.3,2.4,3s2.7,1.1,4.4,1.1,3.7-.6,4.9-1.8c1.3-1.2,1.9-3.1,1.9-5.5v-4.3c-.9,1.3-2.1,2.4-3.7,3.2-1.6.9-3.4,1.3-5.4,1.3s-4.5-.6-6.4-1.8c-1.9-1.2-3.5-2.9-4.6-5.1-1.1-2.2-1.7-4.7-1.7-7.5s.6-5.3,1.7-7.4c1.1-2.2,2.6-3.8,4.5-5,1.9-1.2,4.1-1.8,6.4-1.8s3.9.4,5.5,1.2Zm2.7,8.7c-.7-1.2-1.6-2.1-2.7-2.8-1.1-.6-2.4-1-3.6-1s-2.5.3-3.6,1c-1.1.6-2,1.6-2.7,2.8-.7,1.2-1,2.7-1,4.3s.3,3.1,1,4.4c.7,1.2,1.6,2.2,2.7,2.9,1.1.7,2.3,1,3.6,1s2.5-.3,3.6-1c1.1-.7,2-1.6,2.7-2.8.7-1.2,1-2.7,1-4.4s-.3-3.2-1-4.4Z"/><path class="cls-1" d="m90.1,67.3h-20.2c.2,2,.9,3.6,2.1,4.7,1.2,1.1,2.8,1.7,4.5,1.7,2.6,0,4.5-1.1,5.6-3.4h7.5c-.8,2.7-2.3,4.9-4.6,6.6-2.3,1.7-5,2.6-8.4,2.6s-5.1-.6-7.2-1.8c-2.1-1.2-3.8-2.9-5-5-1.2-2.2-1.8-4.7-1.8-7.5s.6-5.4,1.8-7.5c1.2-2.2,2.8-3.8,4.9-5,2.1-1.2,4.5-1.8,7.2-1.8s5,.6,7.1,1.7c2.1,1.1,3.7,2.7,4.9,4.8,1.1,2.1,1.7,4.5,1.7,7.2s0,1.9-.2,2.7Zm-7-4.7c0-1.8-.7-3.2-2-4.3-1.3-1.1-2.8-1.6-4.6-1.6s-3.2.5-4.4,1.6c-1.2,1.1-1.9,2.5-2.2,4.4h13.2Z"/><path class="cls-1" d="m116.3,54.1c2,2.1,3,5,3,8.7v16.2h-7v-15.3c0-2.2-.5-3.9-1.6-5.1-1.1-1.2-2.6-1.8-4.5-1.8s-3.5.6-4.6,1.8c-1.1,1.2-1.7,2.9-1.7,5.1v15.3h-7v-27.7h7v3.5c.9-1.2,2.1-2.1,3.6-2.8,1.5-.7,3-1,4.8-1,3.3,0,6,1,8,3.1Z"/><path class="cls-1" d="m123.4,57.7c1.2-2.1,2.8-3.8,4.9-5,2.1-1.2,4.4-1.8,7.1-1.8s6.3.9,8.5,2.6c2.2,1.7,3.8,4.1,4.5,7.2h-7.5c-.4-1.2-1.1-2.1-2-2.8-1-.7-2.1-1-3.5-1-2,0-3.6.7-4.8,2.2-1.2,1.4-1.8,3.5-1.8,6.2s.6,4.7,1.8,6.1c1.2,1.5,2.8,2.2,4.8,2.2,2.8,0,4.7-1.3,5.5-3.8h7.5c-.8,3-2.3,5.4-4.5,7.1-2.3,1.8-5.1,2.7-8.5,2.7s-5-.6-7.1-1.8c-2.1-1.2-3.7-2.8-4.9-5-1.2-2.1-1.8-4.7-1.8-7.5s.6-5.4,1.8-7.5Z"/><path class="cls-1" d="m177.6,51.3l-17.2,40.8h-7.5l6-13.8-11.1-27h7.8l7.2,19.4,7.2-19.4h7.5Z"/></g></svg>